<?xml version="1.0" standalone="no"?>
<!DOCTYPE svg PUBLIC "-//W3C//DTD SVG 20010904//EN"
 "http://www.w3.org/TR/2001/REC-SVG-20010904/DTD/svg10.dtd">
<svg version="1.0" xmlns="http://www.w3.org/2000/svg"
 width="296.000000pt" height="296.000000pt" viewBox="0 0 296.000000 296.000000"
 preserveAspectRatio="xMidYMid meet">
<metadata>
Created by potrace 1.11, written by Peter Selinger 2001-2013
</metadata>
<g transform="translate(0.000000,296.000000) scale(0.100000,-0.100000)"
fill="#000000" stroke="none">
<path d="M1026 2509 l-450 -449 65 0 64 1 363 362 c199 199 362 361 362 359 0
-2 11 9 24 25 l24 28 60 -58 c33 -31 59 -57 58 -57 -1 0 92 -93 207 -207 115
-115 262 -261 327 -325 65 -65 123 -118 129 -118 6 0 11 -3 11 -7 0 -5 25 -6
56 -5 l56 4 -439 439 c-241 242 -445 444 -453 448 -11 7 -120 -96 -464 -440z"/>
<path d="M1245 2312 c-212 -212 -251 -255 -227 -251 4 1 93 91 197 199 105
108 194 198 198 199 5 0 20 15 34 31 14 17 29 30 34 28 5 -2 111 -105 237
-230 126 -126 232 -228 237 -228 12 0 -9 22 -252 265 l-223 222 -235 -235z"/>
<path d="M1850 1713 c-39 -7 -46 -21 -17 -34 l27 -12 0 -183 c0 -176 -1 -183
-20 -186 -12 -2 -22 -7 -23 -13 -1 -6 29 -11 71 -13 59 -2 72 0 72 13 0 9 -9
15 -23 15 l-23 0 0 207 c0 228 3 217 -64 206z"/>
<path d="M832 1676 c-54 -32 -66 -44 -93 -96 -31 -60 -31 -149 0 -213 28 -57
89 -97 153 -101 50 -2 160 21 169 36 4 5 5 36 4 69 -2 50 0 59 17 65 40 12 11
29 -55 30 -102 2 -121 -24 -26 -35 4 -1 7 -23 8 -50 1 -71 -15 -85 -102 -83
-81 2 -137 86 -133 199 4 121 86 190 200 169 26 -5 37 -13 45 -36 14 -43 41
-30 41 20 0 44 -4 46 -110 49 -64 1 -81 -2 -118 -23z"/>
<path d="M1220 1571 c-71 -38 -99 -143 -61 -228 28 -61 60 -77 145 -74 34 1
106 70 106 101 0 11 3 20 8 20 6 0 8 55 2 70 -1 3 -2 9 -1 13 2 10 -28 68 -43
82 -38 39 -102 45 -156 16z m101 -30 c46 -37 54 -176 13 -222 -37 -41 -110
-13 -129 49 -12 40 -7 119 9 151 23 43 69 53 107 22z"/>
<path d="M1572 1580 c-54 -22 -102 -96 -96 -150 7 -71 9 -80 17 -80 4 0 6 -4
3 -8 -9 -15 50 -63 87 -71 36 -9 94 5 124 30 53 45 65 171 21 235 -33 49 -98
67 -156 44z m102 -53 c29 -40 31 -174 2 -206 -40 -44 -117 -15 -132 50 -14 55
-7 126 14 155 29 41 85 41 116 1z"/>
<path d="M2038 1580 c-18 -5 -23 -13 -25 -43 -1 -26 3 -37 13 -37 8 0 14 7 14
15 0 8 5 15 11 15 5 0 7 5 3 12 -5 8 0 9 14 6 12 -4 24 -3 27 2 4 7 75 3 84
-6 2 -1 -3 -9 -10 -17 -16 -16 -31 -35 -94 -126 -25 -36 -49 -67 -55 -71 -5
-3 -11 -17 -12 -30 l-3 -25 123 -2 c108 -2 122 0 123 15 0 9 2 27 5 40 3 17
-1 22 -16 22 -11 0 -20 -6 -20 -14 0 -22 -18 -29 -89 -33 l-64 -4 25 33 c13
18 35 49 49 68 13 19 26 37 29 40 16 16 80 117 80 127 0 12 -170 23 -212 13z"/>
<path d="M660 901 c0 -3 -19 -5 -42 -3 l-43 3 230 -228 c126 -125 329 -329
452 -452 l223 -224 445 444 c245 244 445 447 445 452 0 4 -25 7 -55 7 l-56 0
-385 -383 c-212 -210 -388 -383 -392 -385 -4 -1 -89 80 -189 180 -517 520
-633 627 -633 589z"/>
<path d="M1000 896 c0 -3 245 -249 418 -420 56 -55 61 -58 81 -44 11 8 18 18
14 21 -3 4 -2 7 4 7 14 0 443 429 434 434 -4 3 -111 -99 -239 -226 l-232 -232
-216 215 c-119 118 -224 222 -233 232 -14 15 -31 23 -31 13z"/>
</g>
</svg>
